<?xml version="1.0" standalone="no"?>
<!DOCTYPE svg PUBLIC "-//W3C//DTD SVG 20010904//EN"
 "http://www.w3.org/TR/2001/REC-SVG-20010904/DTD/svg10.dtd">
<svg version="1.0" xmlns="http://www.w3.org/2000/svg"
 width="568.000000pt" height="568.000000pt" viewBox="0 0 568.000000 568.000000"
 preserveAspectRatio="xMidYMid meet">
<metadata>
Created by potrace 1.11, written by Peter Selinger 2001-2013
</metadata>
<g transform="translate(0.000000,568.000000) scale(0.100000,-0.100000)"
fill="#000000" stroke="none">
<path d="M1123 5608 c-27 -13 -36 -37 -39 -103 -2 -54 7 -78 40 -110 12 -12
59 -63 106 -115 47 -52 97 -108 113 -124 20 -21 27 -40 28 -70 2 -121 0 -589
-3 -591 -2 -1 -64 -5 -138 -8 -161 -7 -209 -13 -329 -41 -229 -53 -452 -179
-631 -356 -155 -153 -224 -259 -254 -390 -17 -70 -19 -265 -5 -331 16 -72 65
-161 119 -216 51 -51 183 -126 245 -138 157 -31 280 -38 391 -21 171 26 368
103 429 166 62 64 28 172 -67 221 -31 16 -64 22 -127 24 -100 3 -146 19 -185
66 -35 42 -47 72 -47 123 0 73 20 115 80 169 62 56 243 131 371 152 19 3 54
10 77 15 72 17 73 15 73 -134 1 -575 1 -3115 1 -3169 -1 -77 6 -67 -141 -184
-47 -37 -105 -83 -129 -102 -54 -43 -68 -74 -70 -167 -3 -125 -72 -114 693
-114 l655 0 27 24 c26 22 28 29 29 107 1 113 -2 125 -45 167 -43 41 -43 42
-122 100 -31 23 -60 47 -65 54 -8 12 -13 3298 -5 3298 2 0 50 -13 106 -29 114
-33 341 -92 371 -96 11 -1 56 -9 100 -18 44 -8 98 -19 120 -23 22 -4 47 -9 55
-10 14 -3 33 -5 160 -19 30 -4 71 -8 90 -11 190 -23 571 -22 785 1 87 9 131
15 155 19 14 2 43 7 65 10 38 5 65 10 120 21 14 3 37 7 53 10 15 3 34 8 42 11
8 3 26 7 40 10 14 2 52 10 85 18 33 8 62 13 65 11 8 -5 5 -3167 -3 -3191 -4
-12 -65 -66 -135 -120 -70 -54 -132 -105 -138 -113 -16 -21 -11 -170 6 -198 8
-12 23 -24 35 -27 11 -3 292 -5 624 -5 427 0 609 3 624 11 45 24 56 49 57 128
0 85 -6 97 -77 163 -113 104 -142 133 -151 152 -8 17 -16 124 -13 175 3 38 -1
105 -5 112 -3 4 -1 8 3 8 5 0 6 24 3 54 -3 30 -3 63 1 73 3 10 3 29 -1 43 -3
14 -4 36 0 50 3 14 4 41 0 60 -3 19 -3 55 0 80 3 25 3 71 0 103 -3 32 -3 62 0
67 4 6 3 33 0 60 -4 28 -4 50 0 50 3 0 3 24 0 54 -3 30 -3 63 1 73 3 10 3 29
-1 43 -3 14 -4 36 0 50 3 14 4 41 0 60 -3 19 -3 55 0 80 3 25 3 71 0 103 -3
32 -3 62 0 67 4 6 3 33 0 60 -4 28 -4 50 0 50 3 0 3 24 0 54 -3 30 -3 63 1 73
3 10 3 29 -1 43 -3 14 -4 36 0 50 3 14 4 41 0 60 -3 19 -3 55 0 80 3 25 3 71
0 103 -3 32 -3 62 0 67 4 6 3 33 0 60 -4 28 -4 50 0 50 3 0 3 24 0 54 -3 30
-3 63 1 73 3 10 3 29 -1 43 -3 14 -4 36 0 50 3 14 4 41 0 60 -3 19 -3 55 0 80
3 25 3 71 0 103 -3 32 -3 62 0 67 4 6 3 33 0 60 -4 28 -4 50 0 50 3 0 3 24 0
54 -3 30 -3 63 1 73 3 10 3 29 -1 43 -3 14 -4 36 0 50 3 14 4 41 0 60 -3 19
-3 55 0 80 3 25 3 71 0 103 -3 32 -3 62 0 67 4 6 3 33 0 60 -4 28 -4 50 0 50
3 0 3 24 0 54 -3 30 -3 63 1 73 3 10 3 29 -1 43 -3 14 -4 36 0 50 3 14 4 41 0
60 -3 19 -3 55 0 80 3 25 3 71 0 103 -3 32 -3 62 0 67 4 6 3 33 0 60 -4 28 -2
50 2 50 5 0 7 4 4 9 -3 4 -5 35 -6 67 0 32 0 70 -1 84 0 14 0 32 0 40 0 8 0
35 0 60 0 25 0 52 0 60 0 8 0 53 1 100 1 100 2 102 115 185 127 94 125 90 125
212 0 97 -2 106 -25 128 l-24 25 -624 0 -624 0 -27 -25 c-28 -26 -29 -31 -27
-118 1 -74 16 -101 86 -154 6 -5 45 -34 87 -67 123 -93 112 -40 113 -574 l0
-463 -65 -19 c-74 -21 -146 -40 -175 -46 -164 -32 -345 -61 -395 -62 -8 -1
-49 -4 -90 -7 -94 -9 -267 -8 -385 0 -49 3 -115 8 -145 10 -30 2 -55 5 -55 5
0 1 -9 3 -20 4 -93 13 -266 46 -315 60 -25 8 -49 14 -55 15 -28 5 -64 15 -105
28 -25 8 -52 16 -60 18 -68 14 -379 134 -486 188 l-70 35 1 335 0 335 38 53
c21 30 71 97 112 149 91 116 96 130 86 250 0 9 -14 23 -30 33 -27 16 -80 17
-643 16 -415 0 -620 -4 -635 -11z m4207 -177 c0 -4 -8 -16 -17 -27 -42 -47
-111 -131 -126 -154 -14 -23 -16 -233 -16 -2391 l0 -2367 66 -103 c36 -57 67
-108 69 -114 3 -7 -94 -10 -305 -10 -208 0 -307 3 -302 10 20 28 88 112 99
123 6 8 17 23 24 35 16 31 18 3608 2 3614 -7 2 -38 -9 -70 -25 -73 -37 -194
-87 -217 -91 -4 0 -21 -8 -37 -16 -16 -8 -33 -15 -37 -15 -8 0 -66 -17 -93
-27 -8 -3 -21 -7 -29 -9 -7 -1 -36 -8 -65 -15 -28 -7 -53 -14 -56 -14 -3 -1
-27 -5 -55 -10 -27 -5 -52 -10 -55 -10 -196 -42 -540 -51 -825 -20 -100 11
-133 15 -155 20 -14 3 -43 7 -65 10 -22 2 -51 7 -65 10 -14 2 -38 7 -55 10
-16 4 -79 18 -140 32 -60 14 -118 27 -128 28 -9 2 -21 6 -25 9 -5 3 -19 7 -33
10 -109 21 -587 177 -658 215 -11 6 -22 11 -25 11 -3 0 -6 -824 -6 -1832 l0
-1831 70 -109 c39 -60 70 -110 70 -111 0 -1 -139 -2 -310 -3 -170 0 -310 2
-310 4 0 1 32 42 70 90 l70 87 -2 1855 -3 1855 -25 3 c-44 5 -73 2 -150 -13
-41 -8 -84 -17 -95 -19 -26 -5 -117 -33 -175 -54 -25 -9 -47 -17 -50 -18 -3 0
-18 -6 -33 -12 -16 -7 -30 -12 -32 -12 -3 0 -48 -21 -102 -46 -353 -167 -459
-359 -289 -524 46 -46 154 -119 204 -139 23 -10 32 -20 32 -37 0 -28 -33 -61
-69 -69 -54 -11 -77 -16 -111 -20 -180 -26 -326 9 -411 96 -168 174 -66 482
231 699 41 30 86 61 98 68 252 142 540 214 907 227 33 2 63 3 68 4 4 0 7 214
7 474 l0 472 -70 88 c-39 48 -69 88 -68 88 10 5 658 4 658 0 0 -9 -62 -85
-142 -174 l-38 -42 3 -479 2 -480 45 -16 c25 -9 52 -20 60 -23 23 -10 134 -51
140 -52 3 -1 70 -23 149 -49 80 -26 154 -50 165 -53 38 -8 51 -11 51 -13 0 -1
8 -3 18 -6 9 -2 25 -6 35 -8 9 -3 17 -5 17 -6 0 -2 4 -3 75 -19 184 -42 229
-52 269 -57 25 -3 48 -8 51 -9 3 -2 26 -6 50 -9 56 -8 120 -17 142 -21 142
-27 675 -26 808 0 14 3 46 7 71 10 49 6 48 6 159 30 94 21 92 20 170 43 170
50 427 158 432 182 2 8 4 256 3 550 l0 536 -69 87 c-38 48 -73 87 -78 87 -4 0
-8 4 -8 9 0 5 136 9 320 9 176 0 320 -3 320 -7z"/>
</g>
</svg>
