<svg xmlns="http://www.w3.org/2000/svg" viewBox="0 0 141.54 138.51"><defs><style>.cls-1{fill:#1c633c;}</style></defs><g id="Layer_2" data-name="Layer 2"><g id="Layer_1-2" data-name="Layer 1"><path class="cls-1" d="M136.45,10.56l4-2.95a2.79,2.79,0,0,0,1.14-2.22V2a2.06,2.06,0,0,0-2.13-2H110a2.11,2.11,0,0,0-2.18,2V4a3.48,3.48,0,0,0,1.37,2.74l4.78,3.71A2.76,2.76,0,0,1,115,12.58V34.91c-20.12,6.17-40.23,4.18-60.31-5.63V13.13a2.25,2.25,0,0,1,.46-1.35l5-6.52a2.79,2.79,0,0,0,.57-1.68V1.91a2,2,0,0,0-2-1.91H29A2,2,0,0,0,27,1.91V3.8A1.83,1.83,0,0,0,27.44,5l6.33,6.89A1.56,1.56,0,0,1,34.19,13V28.15C20.24,27.65,9.9,32.83,2.62,42.83A13.3,13.3,0,0,0,.06,50a35.41,35.41,0,0,0,0,4.61,10.56,10.56,0,0,0,2.52,6.16C10.54,70,29.54,64,30.48,60.3c.67-2.64-1.74-5.12-4.65-5.12H23.92a4.67,4.67,0,0,1-4.57-3.29c-1.54-5.71,4.85-8.37,13.84-10a.82.82,0,0,1,1,.76v82.83a1.48,1.48,0,0,1-.56,1.13L27,131.84a3.39,3.39,0,0,0-1.3,2.63v2.65a1.44,1.44,0,0,0,1.49,1.39H58.44a2.21,2.21,0,0,0,2.28-2.14V133.5a3.57,3.57,0,0,0-1.46-2.84l-3.9-2.91a1.65,1.65,0,0,1-.67-1.3V45c20.4,6.44,40.53,7.71,60.31,2.26v79a1.94,1.94,0,0,1-.76,1.52l-6,4.66a1.24,1.24,0,0,0-.49,1v3.16a1.94,1.94,0,0,0,2,1.87H139a2.51,2.51,0,0,0,2.59-2.42v-2a2.85,2.85,0,0,0-.93-2.09l-4.21-3.93a2.75,2.75,0,0,1-.89-2V12.39A2.3,2.3,0,0,1,136.45,10.56Zm-4,122.88H116.81l3.62-4.5V38.85C99.58,50,74.88,47.14,48.06,36.6v91.21l3.62,5.63H36l3.61-4.5V36.6C37.29,34.43-2.46,46,21.31,57.51c1.14.56.05,2.06-1.29,2.39C-4.46,66-.07,33.22,39.61,33.22V9.57L36,5.07H52.88L48.06,10.7V34.35c29.19,11.76,53.25,12.13,72.67,2.25V9.29L116.81,4.5H133.1l-4.22,5.07V127.81Z"/></g></g></svg>