<svg xmlns="http://www.w3.org/2000/svg" width="1113.6" height="546.75" viewBox="0 0 1113.6 546.75"><defs><style>.cls-1,.cls-2{fill:none;stroke:#333;stroke-miterlimit:10;}.cls-1{stroke-width:7px;}.cls-2{stroke-width:5px;}.cls-3{fill:#333;}</style></defs><title>Asset 4</title><g id="Layer_2" data-name="Layer 2"><g id="Layer_18" data-name="Layer 18"><path class="cls-1" d="M574.08,345.13a22.07,22.07,0,0,1-2-1.36c-7.14-5.54-15.78-4.78-22.41-.53-52.1,37-78.17,20.74-103,2-8.85-.57-13.63,2.95-10,10,5.62,10.36,38.45,21.45,63.64,26.69a1.13,1.13,0,0,1-.22,2.23c-23-.05-60.77-5.19-79.2-10.56a1,1,0,0,1-.52-1.44c5.85-5.31,10.39-13,14.3-21.92,1.46-6.49-1.43-10.28-7.29-10.37a11.7,11.7,0,0,0-5.82,1.54c-3,1.13-6.76,3.87-10.17,6a12.94,12.94,0,0,1-11.19,1.31,38.51,38.51,0,0,1-12.59-7.39,10.75,10.75,0,0,1-2.13-13.81,17.19,17.19,0,0,1,3-3.53,7.86,7.86,0,0,1,5.87-2.17,4.28,4.28,0,0,1,4.16,3.71,4.33,4.33,0,0,1-1.17,4c-3.47,3.48-4.13,6.57-3.27,9.34a8.83,8.83,0,0,0,7.86,6,16.42,16.42,0,0,0,6.32-.81,9.57,9.57,0,0,0,6.42-7.61A43.05,43.05,0,0,0,415,323,19.31,19.31,0,0,0,399.09,307a38.84,38.84,0,0,0-9.58-.56c-11.3.81-21.46,10.24-22.38,21.54a35.77,35.77,0,0,0,.71,10.06,30,30,0,0,0,9.52,16.4c3.69,3.26,14.29,8.54,21.5,12.16a.9.9,0,0,1-.5,1.7l-29.73-3a47.21,47.21,0,0,1-35.74-16,56.72,56.72,0,0,1-5.18-7c-5.56-8-7-15.42-1-22l8-6c6.61,2.81,10.09,6.66,6,13-3.15,3.67-3.49,7,0,10,5,1.81,9.94,2,15-6,5.41-8.28,4.45-15.25-.56-21.37-.8-1-1.62-1.94-2.36-2.95-8-10.85-20-11.31-34.08-6.68-30,36,7,79,34.55,80h41.45l-8,11c-29-4.8-53.82-12.49-74-24-8.76-8.93-13-21-9.73-34.69.68-2.86.79-5.83,1.61-8.66,1.83-6.28-.52-13.18-7.43-20.4A51,51,0,0,0,263,288.17a150.52,150.52,0,0,0-26.62,1c-.48.06-.95.2-1.43.22-37,1.86-37.38-1.4-50.35-13.2a14.88,14.88,0,0,0-14.72-3.24c-19,6.45,5.77,31.28,24.69,42.12a1,1,0,0,1-.69,1.84c-82.73-16-158.65,43-163.21,32.35-2,0-15-12-8.75-16.34a30.25,30.25,0,0,1,4.2-3,.62.62,0,0,1,.83.83c-6.95,15.8,14.83,19.91,18.72-.47.63-6.51-2.14-11.12-8-14-10.49-3.95-19.37-5-25,0-29,35,18,58,38,47,21.77-6.93,38.64-34.42,114.6-33.05a3.69,3.69,0,0,1,3.51,2.67,8.36,8.36,0,0,1,.31,2.41,3.37,3.37,0,0,1-4.21,3.2c-26.18-6.82-53.66-1-75.21,12.77q-34.95,27.75-18,64c11.92,22.29,30.55,33.36,62,23,14.43-6.7,19.43-17.76,19.63-31a24.59,24.59,0,0,0-7.11-17.8c-4.72-4.68-9.84-7.79-14.58-8.59a12.64,12.64,0,0,0-14.05,8.47c-2.68,7.88,2.43,15,11.36,8.38a3.45,3.45,0,0,1,3.81-.29,7.26,7.26,0,0,1,2.8,3.91A13.57,13.57,0,0,1,132.65,415a75.82,75.82,0,0,1-9.47,8.9,13.75,13.75,0,0,1-11.27,2.44C82.64,420,75,394.06,92.71,373.24c16.32-14.79,33.84-23.5,53-24,13.55.25,20.18,3.46,12,13-8.29,11.9-8.64,25.12,13,42,5.62,3.94,13,4.1,19.59,1.33a25.2,25.2,0,0,0,14.44-17.84c1.68-7.37.5-12.63-2-16.81a19.66,19.66,0,0,0-19.28-9.26,13.77,13.77,0,0,0-1.41.24,4.53,4.53,0,0,0-2.56,7.31c4.58,5.47,9.25,13.73,7.8,17.05a5.65,5.65,0,0,1-5.47,3.18c-4.52-.18-7.43-2.92-9.22-7.66A16,16,0,0,1,175.51,366a39,39,0,0,1,7.77-7.12,21.72,21.72,0,0,1,17-3.2c31.31,6.08,63.28,13,81.21,19.05a.4.4,0,0,1-.2.77l-11.75-3a17.11,17.11,0,0,0-13.86,3.82l-3.31,3.27a3,3,0,0,0,1.29,5c23.29,2.48,64.19,15.64,108.07,30.6,28.45,9.9,97.37,13.11,132.17,13.47a.41.41,0,0,1,.12.79c-29.32,9.95-95,7.42-134.29-11.26a257,257,0,0,0-50.42-11.73,36.09,36.09,0,0,0-4-.32l-31.21-.77a1.08,1.08,0,0,0-.37,2.11l57.58,17.15,60,19c18.08,5.8,48.51,7.65,72.44,4.56,13.3-1.76,24.48-1.32,22.52,7.33a31.08,31.08,0,0,0-.68,5.53c-.29,7,1.35,13.51,4.8,18.46,3.87,5.55,14.72,11,21.36,9.68,45-9,33,55,54,54,12-.57,17-51,33-53h23c34.2-7.6,3.34-39.45,26.83-41.87a26.13,26.13,0,0,1,6.37.19c19.8,2.76,38.58,3.36,55.8.68,42-8,88-25,140.08-42.23a.4.4,0,0,0-.16-.77H821.54a101.06,101.06,0,0,0-25.26,3.21l-76.57,21.79c-13,3.87-25.24,4.53-43.5,4.5-.12,0-33.81-.84-24.12-1.06A225.67,225.67,0,0,0,706,426.47c48.33-13.08,124.28-39.24,161.47-42,3.08-.19,5-3.38-1.36-7.39a24.92,24.92,0,0,0-15.65-3.47,19,19,0,0,0-5.89,1.63,20.69,20.69,0,0,1-8.1,2,.46.46,0,0,1-.28-.82c6.5-5.42,76.64-19.72,76.55-18.2,18-7,27,2,31,8,4,3,6,25-8,25-4.12-2.3-5.55-4.87-4.62-7.69a19.6,19.6,0,0,1,4.66-7.06c10-9.81,6.83-16.55-10-14.25h0c-6.37,3.13-10.35,8.21-11,16-1.88,15.4,5.18,26.95,21,30,13.5,1.49,25.95-14,27.82-25.65.1-.62.2-1.24.33-1.85,1-4.68,2.14-10.85-1.54-15.07-5.61-6.43-10.26-12.6,6.39-15.43,18-1,35.77,7.49,51,21,19.59,18.44,18.76,34.25,2,48-7.9,8-15.17,9.57-22.54,8.66-13.46-1.66-28.46-28.66-10.46-28.66,4,0,10,6,10.48-3.75,0-.69.11-1.37.17-2a10.22,10.22,0,0,0-12.6-10.66l-6,1.41c-30,14-12.28,46.89,3,55,11.79,5.9,35.71,8.58,49.25-7,2-2.33,5.23-6.23,7.33-8.49,13.44-14.46,15.79-34.16,3.42-52.48-7.58-14-19.22-22.93-34-28-19.82-7.3-37.49-7.8-53.6-3.4a6.37,6.37,0,0,1-4.43-.28,4.62,4.62,0,0,1-1.94-7.07,5.75,5.75,0,0,1,4.79-2.21c25.88.67,45.36,3.2,57.18,8a181.58,181.58,0,0,1,49,25c43,15,53.64-23.43,48-36-2.91-12.91-12.61-16.09-26-14a23.2,23.2,0,0,0-10,8.06c-5.8,8.58-1.49,20.59,8.61,22.86,6.12,1.38,10.52-1.78,7.42-11.86a.88.88,0,0,1,1.42-.91l3,2.55a4.35,4.35,0,0,1,1.13,5.15c-3.26,6.85-11,15-19.61,12.15,0,0-12-6.64-16-10-9.89-8.38-26.75-14.65-46.24-20.12a92,92,0,0,0-18.8-3.15c-1.57-.1-3.15-.22-4.73-.39-12.21-1.31-26.09-4.28-37.91-.37-22.51,7.45-53.64,4.69-64.64,1.81a1.87,1.87,0,0,1,.2-3.66c25.45-3.7,101.84-9.72,72.12-34.12-26.84-22-18,7-53,10l-52-2c-12.23.35-46,17-34.87,42.66a19.46,19.46,0,0,1,1.82,11.31c-1.73,11.52-6.95,24-20.95,30C776.9,383,755.33,386.8,740.91,392c-1.87.68-3.94-.58-5.29-2l-6.91-8.73c52,6,92-10,84-68-5.74-12.84-17-18-34-13a25.64,25.64,0,0,0-12.13,10.19,23.68,23.68,0,0,0-.08,23.64l1.21,2.17c18.5,8.5,17-3,12.88-12.32-3.73-8.44,3.9-10.87,12.12-6.68,7.61,3.89,9.44,23.2-5,34-6.61,9.12-14,13-23,15h-35c12.28-6.72,22.57-13.92,25-23,3.83-16.8-1-27-10-34-12.27-3.08-22.68-2.81-30,3-6,8-6.36,18-4,29,7.55,7.12,16.53,7.7,19-2A21.63,21.63,0,0,0,726,328.89a3.49,3.49,0,0,1,.8-4.84c1.68-1.18,3.93-1.84,4.9-.87l5.41,6.18a7.58,7.58,0,0,1,2,5.43c-.36,5.22-4.07,10.76-10.52,13.95a16,16,0,0,1-14,0l-3.27-1.56a30.93,30.93,0,0,1-4.47-2.65c-19.83-13.9-16.06,7.65-16.06,7.65,3.32,8.48,7.69,16.06,14,22-19.19,6.55-40.71,8.67-63.42,7.32a.33.33,0,0,1,0-.66c23.74-2.27,38.5-12.28,46.89-23.79a6.26,6.26,0,0,0-.16-7.74,8.34,8.34,0,0,0-5.51-2.68,10.07,10.07,0,0,0-8.09,3c-10.49,10.16-26.93,15.61-43,16C611.85,366.15,597,358.38,574.08,345.13Z"/><path class="cls-1" d="M648.21,434.74l-36.08-8.12a19.32,19.32,0,0,1-7.18-3.25l-40.74-29.63,12.58,29.67a19.52,19.52,0,0,1,1.55,6.94l.65,16.88a20,20,0,0,0,5.8,13.45c5.66,5.6,13.48,7.85,23.67,6.44a16.79,16.79,0,0,0,13.19-9.51,14.22,14.22,0,0,0,1.27-6.53c-.28-6-5.56-10.76-11.44-9.62a9.49,9.49,0,0,0-6.43,4.73,15,15,0,0,0-1.26,2.65l-1.9,5.06a7.18,7.18,0,0,1-3.29,3.91c-2.26,1.19-4,.27-5.23-2.14a11.54,11.54,0,0,1-1.27-5.16c-.22-10.3,3.58-18,15.11-20.77Z"/><path class="cls-1" d="M477.21,430.74,506,429.2a15.69,15.69,0,0,0,10.5-4.66l0-.05,30.66-30.75-3,25.7a19.72,19.72,0,0,0-.27,7.1l2.41,16.73a20,20,0,0,1-3.27,14.27c-4.55,6.53-11.84,10.15-22.12,10.61a16.82,16.82,0,0,1-14.69-7,14.32,14.32,0,0,1-2.43-6.2c-.81-5.94,3.53-11.59,9.52-11.53a9.56,9.56,0,0,1,7.18,3.49,16.13,16.13,0,0,1,1.71,2.38l2.78,4.64a7.2,7.2,0,0,0,3.95,3.25c2.44.76,3.93-.44,4.75-3a11.49,11.49,0,0,0,.32-5.31c-1.64-10.17-6.77-17.07-18.61-17.7Z"/><path class="cls-2" d="M557.21,412.74c-2.34,10.7-.33,22.94,4,36l4.25-13.46a13,13,0,0,0-1.2-10.54Z"/><path class="cls-2" d="M445.52,280.74l220.82.9a1.31,1.31,0,0,1,.3,2.59l-35.06,8.45c-69.37,16-186.17-10.3-186.17-10.3A.82.82,0,0,1,445.52,280.74Z"/><path class="cls-2" d="M313.21,269.74c27-2,244.59-10,256-10,11,0,245,11,245,11C655.33,274.77,487.57,274,313.21,269.74Z"/></g><g id="lower_u" data-name="lower u"><polygon class="cls-3" points="196.71 168.24 196.71 171.24 201.71 174.24 201.71 245.24 196.71 247.24 196.71 251.24 274.71 251.24 276.71 255.24 278.71 255.24 278.71 233.24 276.71 233.24 274.71 237.24 219.71 237.24 219.71 215.24 254.71 215.24 257.71 219.24 259.71 219.24 259.71 197.24 257.71 197.24 255.71 201.24 219.71 201.24 219.71 182.24 273.71 182.24 275.71 185.24 277.71 185.24 277.71 164.24 275.71 164.24 273.71 168.24 196.71 168.24"/><polygon class="cls-3" points="291.71 251.24 315.71 251.24 315.71 248.24 311.71 244.24 311.71 194.24 341.71 250.24 373.71 194.24 373.71 246.24 369.71 248.24 369.71 251.24 395.71 251.24 395.71 249.24 391.71 246.24 391.71 172.24 396.71 170.24 396.71 168.24 364.71 168.24 364.71 171.24 367.71 171.24 367.71 174.24 343.71 219.24 320.71 174.24 320.71 171.24 323.71 171.24 323.71 168.24 291.71 168.24 291.71 171.24 293.71 171.24 295.71 173.24 295.71 244.24 291.71 248.24 291.71 251.24"/><polygon class="cls-3" points="852.71 251.24 876.71 251.24 876.71 248.24 872.71 244.24 872.71 194.24 902.71 250.24 934.71 194.24 934.71 246.24 930.71 248.24 930.71 251.24 956.71 251.24 956.71 249.24 952.71 246.24 952.71 172.24 957.71 170.24 957.71 168.24 925.71 168.24 925.71 171.24 928.71 171.24 928.71 174.24 904.71 219.24 881.71 174.24 881.71 171.24 884.71 171.24 884.71 168.24 852.71 168.24 852.71 171.24 854.71 171.24 856.71 173.24 856.71 244.24 852.71 248.24 852.71 251.24"/><path class="cls-3" d="M474.71,168.24h-64v2l5,3v72l-5,3v3h27v-3l-5-3v-28h42C499.24,217.24,499.24,168.24,474.71,168.24Zm-6,36h-36v-23h36C479.79,181.24,479.79,204.24,468.71,204.24Z"/><path class="cls-3" d="M550.71,165.24c-26.51,0-48,19.7-48,44s21.49,44,48,44,48-19.7,48-44S577.22,165.24,550.71,165.24Zm-.5,74a29.5,29.5,0,1,1,29.5-29.5A29.5,29.5,0,0,1,550.21,239.24Z"/><path class="cls-3" d="M697.71,248.24l-23-31c29.41,0,29.41-49,0-49h-64v3l4,3v71l-4,6h26v-3l-4-2v-29h23l19,28v1l-3,2v3h30v-3Zm-28-44h-37v-23h37C682.11,181.24,682.11,204.24,669.71,204.24Z"/><path class="cls-3" d="M709.71,168.24v3l4,2v72l-4,3v3h27v-3l-5-3v-72l5-2v-3S709.75,168.2,709.71,168.24Z"/><path class="cls-3" d="M748.71,168.24v3l4,2v52c-2,37,85,36,82,0v-52l4-2v-3h-25v3l4,3v50c0,19.21-46,19.21-46,0v-51l5-2-1-3Z"/></g><g id="H"><g id="H-2" data-name="H"><path class="cls-3" d="M216.89,23.24l3.48-2.78a2.68,2.68,0,0,0,1-2.1v-3.2a1.88,1.88,0,0,0-1.88-1.88H193.55a1.92,1.92,0,0,0-1.92,1.92V17a3.34,3.34,0,0,0,1.21,2.58l4.2,3.51a2.64,2.64,0,0,1,1,2V46.22c-17.73,5.82-35.43,3.94-53.12-5.32V25.67a2.14,2.14,0,0,1,.41-1.27l4.39-6.16a2.74,2.74,0,0,0,.51-1.59V15.09a1.81,1.81,0,0,0-1.8-1.81H122.25a1.81,1.81,0,0,0-1.81,1.8v1.78a1.83,1.83,0,0,0,.44,1.18l5.57,6.5a1.51,1.51,0,0,1,.37,1v14.3c-12.29-.47-21.4,4.41-27.81,13.85a13.24,13.24,0,0,0-2.26,6.74,39.4,39.4,0,0,0,0,4.35A10.42,10.42,0,0,0,99,70.59a26.67,26.67,0,0,0,4.9,4.53A9.62,9.62,0,0,0,109.63,77,18.75,18.75,0,0,0,118,75l4.53-2.26a8.87,8.87,0,0,0,1-2.61,4.12,4.12,0,0,0-4.09-4.83h-1.69a4.14,4.14,0,0,1-4-3.1c-1.36-5.39,4.27-7.9,12.19-9.48a.74.74,0,0,1,.88.72v78.15a1.42,1.42,0,0,1-.49,1.07l-5.81,5a3.29,3.29,0,0,0-1.14,2.49v2.49a1.31,1.31,0,0,0,1.31,1.31h27.49a2,2,0,0,0,2-2v-2.71a3.42,3.42,0,0,0-1.29-2.68l-3.43-2.75a1.58,1.58,0,0,1-.59-1.22V55.78c18,6.07,35.7,7.27,53.12,2.12v74.56a1.86,1.86,0,0,1-.67,1.44l-5.27,4.39a1.22,1.22,0,0,0-.43.92v3a1.76,1.76,0,0,0,1.76,1.76h25.7a2.29,2.29,0,0,0,2.29-2.28v-1.87a2.84,2.84,0,0,0-.82-2l-3.71-3.7a2.73,2.73,0,0,1-.79-1.91V25A2.24,2.24,0,0,1,216.89,23.24Zm-3.48,115.94H199.6l3.18-4.25v-85c-18.36,10.5-40.12,7.82-63.74-2.13v86.06l3.18,5.31H128.41l3.19-4.25V47.81c-2.13-2.12-37.19,2.13-18.06,23.37C95.48,72.25,94.41,44.62,131.6,44.62V22.31l-3.19-4.25h14.88L139,23.37V45.69c25.71,11.1,46.9,11.45,64,2.12V22.05l-3.45-4.52h14.34l-3.72,4.78V133.87Z"/><path class="cls-3" d="M523.94,23.24l3.48-2.78a2.71,2.71,0,0,0,1-2.1v-3.2a1.88,1.88,0,0,0-1.88-1.88H500.6a1.92,1.92,0,0,0-1.92,1.92V17a3.37,3.37,0,0,0,1.2,2.58l4.21,3.51a2.64,2.64,0,0,1,1,2V46.22c-17.73,5.82-35.43,3.94-53.12-5.32V25.67a2.2,2.2,0,0,1,.4-1.27l4.4-6.16a2.74,2.74,0,0,0,.51-1.59V15.09a1.81,1.81,0,0,0-1.8-1.81H429.29a1.81,1.81,0,0,0-1.8,1.8v1.78a1.83,1.83,0,0,0,.44,1.18l5.57,6.5a1.51,1.51,0,0,1,.37,1v14.3c-12.29-.47-21.4,4.41-27.81,13.85a13.24,13.24,0,0,0-2.26,6.74,39.4,39.4,0,0,0,0,4.35,10.42,10.42,0,0,0,2.22,5.81,26.67,26.67,0,0,0,4.9,4.53A9.62,9.62,0,0,0,416.68,77a18.75,18.75,0,0,0,8.41-2l4.53-2.26a9.16,9.16,0,0,0,1-2.61,4.12,4.12,0,0,0-4.09-4.83h-1.69a4.14,4.14,0,0,1-4-3.1c-1.36-5.39,4.27-7.9,12.19-9.48a.74.74,0,0,1,.88.72v78.15a1.42,1.42,0,0,1-.49,1.07l-5.81,5a3.29,3.29,0,0,0-1.14,2.49v2.49a1.31,1.31,0,0,0,1.31,1.31h27.49a2,2,0,0,0,2-2v-2.71a3.42,3.42,0,0,0-1.29-2.68l-3.43-2.75a1.58,1.58,0,0,1-.59-1.22V55.78c18,6.07,35.7,7.27,53.12,2.12v74.56a1.86,1.86,0,0,1-.67,1.44l-5.27,4.39a1.22,1.22,0,0,0-.43.92v3a1.76,1.76,0,0,0,1.76,1.76h25.7a2.29,2.29,0,0,0,2.29-2.28v-1.87a2.84,2.84,0,0,0-.82-2l-3.71-3.7a2.73,2.73,0,0,1-.79-1.91V25A2.24,2.24,0,0,1,523.94,23.24Zm-3.48,115.94H506.65l3.18-4.25v-85c-18.36,10.5-40.12,7.82-63.74-2.13v86.06l3.18,5.31H435.46l3.19-4.25V47.81c-2.13-2.12-37.19,2.13-18.06,23.37-18.07,1.07-19.13-26.56,18.06-26.56V22.31l-3.19-4.25h14.88l-4.25,5.31V45.69c25.71,11.1,46.9,11.45,64,2.12V22.05l-3.45-4.52H521l-3.72,4.78V133.87Z"/></g></g><g id="I"><path class="cls-3" d="M270.81,139.21,265,133.44a2.14,2.14,0,0,1-.63-1.53L265.47,25.1a1.59,1.59,0,0,1,.47-1.13l3.81-3.81a3.53,3.53,0,0,0,1-2.49V14.15a1.4,1.4,0,0,0-1.4-1.4h-28A1.43,1.43,0,0,0,240,14.18v3.5a3.1,3.1,0,0,0,1.11,2.37l4.92,4.1a.94.94,0,0,1,.34.73V132.43a.9.9,0,0,1-.26.64l-5.62,5.62a1.69,1.69,0,0,0-.49,1.19v2.33a1.21,1.21,0,0,0,1.22,1.22H269.8a1.52,1.52,0,0,0,1.51-1.51v-1.5A1.72,1.72,0,0,0,270.81,139.21ZM263.25,17.13l-4.14,6.22s0,0,0,0V134.22a2.12,2.12,0,0,0,.43,1.28l2.66,3.54a.09.09,0,0,1-.07.14H248.47l3.19-4.25V23.37L247.41,17h15.77A.08.08,0,0,1,263.25,17.13Z"/></g><g id="G"><path class="cls-3" d="M388.71,0C381.27.35,377.49,4,377,9.25a2.17,2.17,0,0,0,2.14,2.35c9.38.09,7.87,7.32-1.07,4.34C371.71,13.81,342,1.06,316.47,17c-45.69,25.5-38.25,102,0,120.06,24.06,14.58,49.74,14.1,76.79.91a3.3,3.3,0,0,0,1.83-3,11.81,11.81,0,0,0-1.68-6.07l-3.15-5.25a10.83,10.83,0,0,1-1.55-5.57V73a2.29,2.29,0,0,1,.4-1.3l5-7.54a2.87,2.87,0,0,0-1-4.1l-.05,0a3.42,3.42,0,0,0-3.07-.14l-8.74,3.89h-8.16a7.16,7.16,0,0,1-2.7-.55,102.9,102.9,0,0,0-13.71-4.38,48.55,48.55,0,0,0-11.82-1.45h-2.12a18.33,18.33,0,0,0-9,2.24,16.94,16.94,0,0,0-7.84,19.66,5.87,5.87,0,0,0,.26.81,13.25,13.25,0,0,0,4.43,5.85,5.69,5.69,0,0,0,3.47,1.19H337a8.29,8.29,0,0,0,5.15-1.8l.77-.62a8.11,8.11,0,0,0,3-5.74,15.68,15.68,0,0,0-.06-3.08,2.92,2.92,0,0,0-2.9-2.57,11.45,11.45,0,0,0-4.65,1c-3.93,1.77-4.37-4.17-.58-4.17h3.79a4.06,4.06,0,0,1,.92.11,28.37,28.37,0,0,1,10,4.53,15.13,15.13,0,0,0,8.81,2.8h2.88a7.51,7.51,0,0,0,4.14-1.25l1.31-.88v46.95a8.1,8.1,0,0,0,.86,3.65l2.75,5.5a1.26,1.26,0,0,1-.71,1.76c-12.43,4.28-23.39,3.1-33.71-.48-56.31-32.94-35.06-106.25,0-111.56a56.14,56.14,0,0,1,13.09-.2,23.08,23.08,0,0,1,3.51.65l19,5a29.67,29.67,0,0,0,7.5,1h3.76a16.23,16.23,0,0,0,13.7-7.17C404.55,12.42,402.1.74,388.71,0ZM335.82,79.68h3a.72.72,0,0,1,.67.94,3.3,3.3,0,0,1-3.13,2.25H336a4.15,4.15,0,0,1-1-.12,6,6,0,0,1-4.35-4.29l-.77-2.68a.52.52,0,0,1,.91-.47l2.78,3.46A3.11,3.11,0,0,0,335.82,79.68Zm34.93-10c-3.6,1.75-7.89,3-12.27,2A6.31,6.31,0,0,1,356,70.43c-4.72-3.72-11.95-5.16-19.68-4.77A.61.61,0,0,1,336,64.5a36.09,36.09,0,0,1,11.47-2.79,13,13,0,0,1,6.86,1.54c4.9,2.63,10.65,3.63,16.07,4.32A1.12,1.12,0,0,1,370.75,69.68Zm24.83-54.33a8.51,8.51,0,0,1-5.21,5.79c-5.94,2.33-14,1.73-21.73-.33a38.91,38.91,0,0,1-4.07-1.37c-14.14-5.54-27-4.86-38.54,1.81C293,38.31,292.59,89.8,313.11,118.92a51.27,51.27,0,0,0,29.19,19.77c14.07,3.67,27.06,2.9,38.38-4.71a2,2,0,0,0,.57-2.8l-2.38-3.57A17.39,17.39,0,0,1,376,118V69.47a.51.51,0,0,1,.4-.5l7.68-1.7a.65.65,0,0,1,.7,1L383,71.11a4.76,4.76,0,0,0-.68,2.47v45.3a9.44,9.44,0,0,0,2.06,5.88l4.22,5.27a2.79,2.79,0,0,1-1,4.27L377,139.18c-73.73,29.7-125.75-92.6-48.56-121.46a45.44,45.44,0,0,1,15.91-2.85h2A49,49,0,0,1,356.72,16a164,164,0,0,1,17.2,4.59,13.36,13.36,0,0,0,4.2.7h3.53a9.87,9.87,0,0,0,7.9-3.95,1.09,1.09,0,0,0,.23-.68V12.26a3.37,3.37,0,0,0-1.28-2.65L384.35,7a.69.69,0,0,1,0-1.19,8.57,8.57,0,0,1,8.57.58C395.67,9.34,396.43,12.11,395.58,15.35Z"/></g><g id="L"><g id="Layer_7" data-name="Layer 7"><path class="cls-3" d="M636.1,88.29a29.15,29.15,0,0,0-19.91-7.41,51.32,51.32,0,0,0-8.68.75,10.65,10.65,0,0,0-1.94.51c-18.07,6.7-16.82,26.44-5.7,32.78a16.65,16.65,0,0,0,19.4-3.36c1.64-2.49,2.93-10.11-4.83-8.29a3.36,3.36,0,0,1-4-4.1c1.13-4,5.56-8.26,13.37-4.86a19.65,19.65,0,0,1,11.58,19.16,31.19,31.19,0,0,1-2.27,9.77c-4.92,15.74-32.58,4.17-48.47.67a17.33,17.33,0,0,0-6.77-.09l-6.7,1.83a1.56,1.56,0,0,1-1.88-2c3.12-3.07,5.42-8.33,7.07-15.37a4.78,4.78,0,0,0,.44-2l.52-80.77a3.41,3.41,0,0,1,1.22-2.61l4.3-3.63a4,4,0,0,0,1.39-3V14.5a1.75,1.75,0,0,0-1.75-1.75H555.69a3,3,0,0,0-3,3.34l.16,1.44,5.72,5.72a4.06,4.06,0,0,1,1.19,2.87v76.62a31.75,31.75,0,0,1-8.63,21.72c-2.73,2.91-5.58,5.67-8.29,8.32a3.69,3.69,0,0,0-1,3.55,3.1,3.1,0,0,0,2.66,2.25c3.12.42,5.59,3.15,8.39,6.94l0,0a3.52,3.52,0,0,0,5.6,0c7.43-9.34,20.69-7.78,36.56-1.4a16,16,0,0,0,1.76.62c10.15,3,20.3,5,28.8-.29C647.6,137.17,653.8,104.64,636.1,88.29Zm-3.38,45.17a27.31,27.31,0,0,1-11.57,6.92l-.07,0a12.31,12.31,0,0,0-1.31.52c-5.7,2.58-15.16,1.44-21-1.08A85.23,85.23,0,0,0,576.05,134a5.77,5.77,0,0,0-.71-.1c-6.78.12-12.57,1.5-16.87,4.74a2.11,2.11,0,0,1-3-.5,12.25,12.25,0,0,0-2.87-2.76,2.14,2.14,0,0,1-.18-3.35A34,34,0,0,0,564,109.57a2.46,2.46,0,0,0,0-.28V23.88a2.15,2.15,0,0,0-.23-1l-3-5.92h13.81l-3,5.92a2.15,2.15,0,0,0-.23,1v77.67a8.83,8.83,0,0,1,0,.89c-1.08,10.51-5.9,19.92-13.26,28.58a2.11,2.11,0,0,0,.45,3.13l.21.14a2.33,2.33,0,0,0,2.05.28l14.28-4.76a1.67,1.67,0,0,1,.32-.08c.75-.12,1.5-.14,2.25-.24,7-.93,19,1.94,33.64,6.73l5.26.84h3.5a15,15,0,0,0,9.14-3,34.73,34.73,0,0,0,9.15-10.66,17.21,17.21,0,0,0,2.11-8.4v-.19a30.74,30.74,0,0,0-4.92-17c-2.92-4.41-6.55-7.37-11-8.48-4.29-.91-8.31-1.2-11.69,0-8.89,3.32-9.38,9.39-7.71,15a2.25,2.25,0,0,0,1.08,1.34c1.28,2.42,3.5,3.67,6.63,3.79.18-.36.18-.35,0,0h0l-.44.88a2.26,2.26,0,0,1-2,1.25H606.7a8.8,8.8,0,0,1-6.6-2.86,22.86,22.86,0,0,1-2.85-4,2.51,2.51,0,0,1-.3-1.17A20.63,20.63,0,0,1,597,97a4.45,4.45,0,0,1,.66-2.3,20,20,0,0,1,10.86-8.61l.35-.1a32.94,32.94,0,0,1,12.9-.11,11.56,11.56,0,0,1,1.41.45c5.7,1.82,15.26,10.32,17.38,19.89l.54,7a22.82,22.82,0,0,1-3.77,14.61A42.48,42.48,0,0,1,632.72,133.46Z"/></g></g><g id="A"><path class="cls-3" d="M755.26,103V20.19c-22.31,1.06-51,27.62-53.12,37.18C723.37,62,741.63,75.51,755.26,103ZM750,26.56V83.93c-11.06-14.44-24-25.63-40.38-30.81A82.57,82.57,0,0,1,750,26.56Z"/><path class="cls-3" d="M773.1,140.8l-5.09-8V25.05a3.87,3.87,0,0,1,1.23-2.82l3.26-3a4.38,4.38,0,0,0,.78-3.62,3.59,3.59,0,0,0-1.51-2.09,4.88,4.88,0,0,0-2.68-.78c-28.69-.7-52.71,11-71.2,37.22a73.75,73.75,0,0,0-22.31,0c-20.32,3.83-26,11.12-28.69,19.12-.78,2.9-.56,6.62,0,10.62,2.06,5.76,5.54,8.78,9.66,10.08a13.77,13.77,0,0,0,15.35-5.55L672,84a13.91,13.91,0,0,0,2.31-10.12c-1-5.77-4.49-6.31-5.83-1.46a3.62,3.62,0,0,1-3.81,2.7h-.06a2.18,2.18,0,0,1-1.92-2.1c-.14-6.29,5.15-10.59,17.11-12.47h10.62c-15.47,27.17-13.83,61.73-6.37,98.81l1.06,11.69a7.17,7.17,0,0,0,5.31,1.06l19.12-9.56c1.92-1.37,1.67-3.19,0-5.32-21-5.24-24.35-64.34-6-92.42a1.57,1.57,0,0,1,1.92-.58c27.38,11.51,45.46,31.43,44.49,68.57l-5.83,8a2.31,2.31,0,0,0,1.88,3.67h25.07A2.41,2.41,0,0,0,773.1,140.8Zm-7.22-1.62H752.07l3.19-5.31V114.33c-6.18-24.26-22.51-46.65-53.12-57C680.89,85,683,147.68,703.2,158.31l-12.75,7.43C679.9,122.91,680,85.42,699,57.37c-16.06-4.33-30.41-3.77-40.2,9.86a7.59,7.59,0,0,0-1.4,4.46v.1a8.09,8.09,0,0,0,6.12,7.79l2.8.7A.93.93,0,0,1,666.5,82c-3.11,1.73-9.84,3.82-13.24-1.25a17.36,17.36,0,0,1-1.42-8A13,13,0,0,1,656.17,64c10.62-9.63,24.81-12.14,41.77-9.16a6.1,6.1,0,0,0,4-.72c17.16-24,38.29-36.53,63.91-36.08l-3.18,5.31v110.5Z"/></g><g id="N"><path class="cls-3" d="M896.46,139.37l-6.25-4.69a2.88,2.88,0,0,1-1.16-2.16L882.82,26.6a2.44,2.44,0,0,1,.72-1.88l4.56-4.56a3.53,3.53,0,0,0,1-2.49v-.48a3.38,3.38,0,0,0-3.38-3.38H862.66a3.28,3.28,0,0,0-3.28,3.28A4.07,4.07,0,0,0,861,20.35l6.08,4.55a2.08,2.08,0,0,1,.83,1.59l2,44.28a.49.49,0,0,1-.87.33c-4.89-5.89-9.86-10.8-15-13.73L832.82,45.69c-8.3-4.77-12.74-11.42-12.77-20.2a2.19,2.19,0,0,1,.84-1.71l4.05-3.24a3.75,3.75,0,0,0,.78-.81,5.25,5.25,0,0,0,.93-2.23,3.36,3.36,0,0,0-3.42-3.69H801.71a3.39,3.39,0,0,0-3.3,4.18V18a3.75,3.75,0,0,0,1,1.7l5.76,5.76L796.7,133.87l-7.44,5.31v6.38h27.62v-5.32l-6.37-6.37,5.23-80.54a.45.45,0,0,1,.82-.24,69,69,0,0,0,18.79,16.85A41.29,41.29,0,0,0,842,73.31a78.2,78.2,0,0,1,21.65,13.62,10.09,10.09,0,0,1,3.54,3.63c5.69,9.87,0,19.79-6.22,17.78a3.76,3.76,0,0,1-1.32-6.2c5.14-5.51-3.19-11.71-12.26-5a4.45,4.45,0,0,0-1.27,1.49c-4.21,7.88-3,13.83,2.21,18.32a16,16,0,0,0,10,3.7c6.29.2,11.21-1.66,15.06-5.13a.52.52,0,0,1,.88.36l.91,17.14a3.36,3.36,0,0,1-1.48,3l-3.69,2.46a5.41,5.41,0,0,0-2.17,4,2,2,0,0,0,2,2h25a2.79,2.79,0,0,0,2.79-2.79A2.89,2.89,0,0,0,896.46,139.37ZM875.68,96.64l-.59,3.56c-.82,4.87-3.82,8.88-7.68,12-11.22,9-24.09-2.31-16.52-11.15a3.57,3.57,0,0,1,2.82-1.27c.24,0,.4,0,.36.13-2.2,5.06-.38,8.77,2.84,10.85a10.43,10.43,0,0,0,12.58-1.32,14.69,14.69,0,0,0,3.7-5.28,31.55,31.55,0,0,0,1.06-7.73,16.29,16.29,0,0,0-1.91-7.16c-3.18-6.94-17.34-17.63-27-22.45-1.09-.55-2.23-1-3.36-1.45-7.27-2.91-13.74-8.45-19.81-15.39l-9.56-17-7.44,102,4.25,4.25H796.7l5.31-4.25,8.33-110.37a6,6,0,0,0-1.19-4l-1.83-2.45h10.62l-1.21,1.82a5.47,5.47,0,0,0-.91,3v4.2A17.82,17.82,0,0,0,817.58,35c4.82,9.77,13.3,16.62,24.47,21.33A62.61,62.61,0,0,1,858.9,66.55,59.27,59.27,0,0,1,874.61,88,15.34,15.34,0,0,1,875.68,96.64Zm.7,42.54,4.25-4.25L873.19,22.31l-4.25-4.25h12.75l-4.25,4.25,7.44,112.62,4.25,4.25Z"/></g><g id="D"><path class="cls-3" d="M1006.17,25.48a71.42,71.42,0,0,0-44.82-15.1c-25.37.16-58.08,9.71-54.16,51.24,1.09,12.53,7.4,23.73,30.85,30.52a1.43,1.43,0,0,1,1,1.36v27.62a25.58,25.58,0,0,1-10.76,20.57,1.75,1.75,0,0,0-.65,1.85c.89,3.29,2.8,5.23,6.69,4.53a51.51,51.51,0,0,1,5.82-.63c40.63-2.71,72.18-18.18,83.73-49.13a72.64,72.64,0,0,0,4.27-25C1028.26,54.94,1022.58,38.47,1006.17,25.48Zm15.77,61.64c-6.41,19.31-16.41,31.14-28.69,38.25-12,8.71-30.41,15.42-45,17l0,0H948a57.09,57.09,0,0,1-6.52.31c-.83,0-1.65,0-2.48.05-1.4.1-3.66.06-2.29-1.54a40.81,40.81,0,0,0,5.89-10.27,33.61,33.61,0,0,0,2.82-13.47V50.3a6,6,0,0,0-1.76-4.25l-1.43-1.43,11.69-6.37-.86,3.44a6.48,6.48,0,0,0-.2,1.65v43c4.68.07,22.53-6,24.43-18.33,3.19-10.63-3-12.18-7.84-13.31a.87.87,0,0,1-.08-1.66c7.73-2.54,16.43,3.27,11.11,15-5.07,12.21-17.22,17.68-27.62,19v15.89A68,68,0,0,1,945.54,134a49.84,49.84,0,0,1-3.57,6c-.3.43-.61.85-.92,1.25,2.73.25,9.53-.79,13.42-1.38,13.55-3.4,31-9.54,37.72-16.61,11.94-12.58,20.16-25.3,22.31-38.24,1.48-15,.55-28.68-4.25-40.38-3.51-9.5-12.62-16.93-24.44-23.37-17.25-7.43-69.06-11.69-72.24,32.94-.1,8.78,2.24,16.44,8.49,22.31,6.41,6.45,15,10.2,23.38,9.56v1.06c-9.26-.66-18.48-3-24.44-8.5-7.27-7-9.76-15.78-9.56-25.5-2.12-13.81,20.19-51,75.43-34,12.56,6.2,22.89,13.84,28.69,24.44C1023,55.86,1024,70.85,1021.94,87.12ZM935.48,47.24a4.26,4.26,0,0,0,2.34.92A2.81,2.81,0,0,1,940.06,51l-1,29.75C915.69,75.43,913.57,44.62,927.38,34c7.12-6.81,16.39-12.39,34.34-12.94a45,45,0,0,1,35.13,14.17,47.69,47.69,0,0,1,11.8,24.27c9,49.41-34.39,74.55-55.72,75.41a.79.79,0,0,1-.76-1l3.67-11a46,46,0,0,0,2.35-14.48v-17c14.29-5.05,27.57-11,28.68-27.62-.09-9.91-3.92-15.7-12.74-15.94-5.74-.52-9.34,2.43-11.69,7.44-1.06,7.43,2.37,9.42,6.37,5.31,3.75-1.34,4.64,1,3.19,6.37-2,6-7,9.95-13.81,12.75V41.44l3.07-3.84a5.83,5.83,0,0,0,1.28-4.73,3.41,3.41,0,0,0-2-2.64,4.28,4.28,0,0,0-3.66.18l-20,10A4.41,4.41,0,0,0,935.48,47.24Z"/></g></g></svg>